<svg width="1101" height="261" xmlns="http://www.w3.org/2000/svg" xmlns:xlink="http://www.w3.org/1999/xlink" overflow="hidden"><defs><clipPath id="clip0"><rect x="-114" y="284" width="1101" height="261"/></clipPath><clipPath id="clip1"><rect x="-114" y="284" width="1101" height="257"/></clipPath><clipPath id="clip2"><rect x="-171" y="200" width="1280" height="341"/></clipPath><clipPath id="clip3"><rect x="-171" y="200" width="1280" height="341"/></clipPath><linearGradient x1="449.17" y1="902.959" x2="628.695" y2="880.161" gradientUnits="userSpaceOnUse" spreadMethod="reflect" id="fill4"><stop offset="0" stop-color="#315893"/><stop offset="0.0588235" stop-color="#315992"/><stop offset="0.117647" stop-color="#325A92"/><stop offset="0.176471" stop-color="#335B92"/><stop offset="0.235294" stop-color="#345C91"/><stop offset="0.294118" stop-color="#355D91"/><stop offset="0.352941" stop-color="#365E90"/><stop offset="0.411765" stop-color="#365E8F"/><stop offset="0.470588" stop-color="#375F8E"/><stop offset="0.529412" stop-color="#37608D"/><stop offset="0.588235" stop-color="#38608C"/><stop offset="0.647059" stop-color="#38618B"/><stop offset="0.705882" stop-color="#396189"/><stop offset="0.764706" stop-color="#396288"/><stop offset="0.823529" stop-color="#396286"/><stop offset="0.882353" stop-color="#396284"/><stop offset="0.941176" stop-color="#396282"/><stop offset="1" stop-color="#3A6381"/></linearGradient><linearGradient x1="643.668" y1="887.551" x2="801.114" y2="887.551" gradientUnits="userSpaceOnUse" spreadMethod="reflect" id="fill5"><stop offset="0" stop-color="#3C657D"/><stop offset="0.0769231" stop-color="#3C667C"/><stop offset="0.153846" stop-color="#3D677C"/><stop offset="0.230769" stop-color="#3E687C"/><stop offset="0.307692" stop-color="#3E687B"/><stop offset="0.384615" stop-color="#3F697A"/><stop offset="0.461538" stop-color="#406A79"/><stop offset="0.538462" stop-color="#406B78"/><stop offset="0.615385" stop-color="#406B77"/><stop offset="0.692308" stop-color="#416C75"/><stop offset="0.769231" stop-color="#416C74"/><stop offset="0.846154" stop-color="#416C72"/><stop offset="0.923077" stop-color="#416C70"/><stop offset="1" stop-color="#426D6F"/></linearGradient><linearGradient x1="849.639" y1="868.7" x2="1000.47" y2="888.808" gradientUnits="userSpaceOnUse" spreadMethod="reflect" id="fill6"><stop offset="0" stop-color="#467367"/><stop offset="0.0833333" stop-color="#477466"/><stop offset="0.166667" stop-color="#487566"/><stop offset="0.25" stop-color="#487666"/><stop offset="0.333333" stop-color="#497765"/><stop offset="0.416667" stop-color="#4A7864"/><stop offset="0.5" stop-color="#4B7863"/><stop offset="0.583333" stop-color="#4B7962"/><stop offset="0.666667" stop-color="#4C7960"/><stop offset="0.75" stop-color="#4C7A5F"/><stop offset="0.833333" stop-color="#4C7A5D"/><stop offset="0.916667" stop-color="#4C7A5B"/><stop offset="1" stop-color="#4D7B5A"/></linearGradient><linearGradient x1="1018.86" y1="883.421" x2="1186.27" y2="857.255" gradientUnits="userSpaceOnUse" spreadMethod="reflect" id="fill7"><stop offset="0" stop-color="#507E54"/><stop offset="0.0833333" stop-color="#507F53"/><stop offset="0.166667" stop-color="#518053"/><stop offset="0.25" stop-color="#528153"/><stop offset="0.333333" stop-color="#538252"/><stop offset="0.416667" stop-color="#538351"/><stop offset="0.5" stop-color="#548350"/><stop offset="0.583333" stop-color="#54844F"/><stop offset="0.666667" stop-color="#55844D"/><stop offset="0.75" stop-color="#55854C"/><stop offset="0.833333" stop-color="#55854A"/><stop offset="0.916667" stop-color="#558548"/><stop offset="1" stop-color="#568647"/></linearGradient><linearGradient x1="1201.28" y1="883.63" x2="1372.65" y2="883.63" gradientUnits="userSpaceOnUse" spreadMethod="reflect" id="fill8"><stop offset="0" stop-color="#588942"/><stop offset="0.0833333" stop-color="#588841"/><stop offset="0.166667" stop-color="#588841"/><stop offset="0.25" stop-color="#588841"/><stop offset="0.333333" stop-color="#598840"/><stop offset="0.416667" stop-color="#59883F"/><stop offset="0.5" stop-color="#59883E"/><stop offset="0.583333" stop-color="#59873D"/><stop offset="0.666667" stop-color="#59873B"/><stop offset="0.75" stop-color="#59873A"/><stop offset="0.833333" stop-color="#598638"/><stop offset="0.916667" stop-color="#598636"/><stop offset="1" stop-color="#5A8635"/></linearGradient><linearGradient x1="1399.96" y1="881.971" x2="1568.94" y2="869.496" gradientUnits="userSpaceOnUse" spreadMethod="reflect" id="fill9"><stop offset="0" stop-color="#587B2E"/><stop offset="0.05" stop-color="#577A2D"/><stop offset="0.1" stop-color="#577A2D"/><stop offset="0.15" stop-color="#577A2D"/><stop offset="0.2" stop-color="#57792D"/><stop offset="0.25" stop-color="#57792D"/><stop offset="0.3" stop-color="#57782C"/><stop offset="0.35" stop-color="#57782C"/><stop offset="0.4" stop-color="#57772B"/><stop offset="0.45" stop-color="#56762B"/><stop offset="0.5" stop-color="#56752A"/><stop offset="0.55" stop-color="#567429"/><stop offset="0.6" stop-color="#567229"/><stop offset="0.65" stop-color="#557128"/><stop offset="0.7" stop-color="#557027"/><stop offset="0.75" stop-color="#556E26"/><stop offset="0.8" stop-color="#546D25"/><stop offset="0.85" stop-color="#546B24"/><stop offset="0.9" stop-color="#536923"/><stop offset="0.95" stop-color="#536722"/><stop offset="1" stop-color="#536621"/></linearGradient></defs><g clip-path="url(#clip0)" transform="translate(114 -284)"><g clip-path="url(#clip1)"><g clip-path="url(#clip2)"><g clip-path="url(#clip3)"><path d="M475.88 819.268 585.667 805.327C589.817 804.8 593.499 805.782 596.716 808.274 599.932 810.765 601.794 814.011 602.303 818.011L627.398 1015.63C627.925 1019.78 626.941 1023.46 624.448 1026.68 621.954 1029.9 618.626 1031.77 614.462 1032.31 610.298 1032.83 606.618 1031.85 603.421 1029.38 600.225 1026.9 598.361 1023.58 597.829 1019.39L574.611 836.553 494.393 846.74 517.61 1029.58C518.136 1033.72 517.153 1037.4 514.659 1040.63 512.166 1043.84 508.837 1045.71 504.672 1046.25 500.507 1046.78 496.827 1045.8 493.63 1043.32 490.433 1040.84 488.57 1037.52 488.038 1033.33L462.942 835.708C462.429 831.668 463.41 828.051 465.884 824.857 468.358 821.664 471.689 819.8 475.88 819.268Z" fill="url(#fill4)" fill-rule="evenodd" transform="matrix(1.00027 0 0 1 -574.009 -505.611)"/><path d="M674.286 817.775C677.984 817.775 681.098 819.041 683.63 821.572 686.161 824.103 687.427 827.143 687.427 830.691L687.427 879.382C687.427 889.21 690.933 897.631 697.944 904.643 704.956 911.648 713.309 915.158 723.002 915.158L758.579 915.158 758.579 830.691C758.579 827.108 759.836 824.06 762.35 821.545 764.864 819.032 767.97 817.775 771.668 817.775 775.366 817.775 778.482 819.041 781.013 821.572 783.544 824.103 784.81 827.143 784.81 830.691L784.81 967.03C784.81 981.483 779.745 993.774 769.615 1003.9 759.486 1014.03 747.194 1019.09 732.74 1019.09L693.789 1019.09C690.078 1019.09 686.963 1017.84 684.448 1015.32 681.932 1012.8 680.674 1009.73 680.674 1006.07 680.674 1002.43 681.931 999.346 684.445 996.832 686.958 994.318 690.073 993.062 693.789 993.062L732.74 993.062C739.801 993.062 745.873 990.523 750.956 985.437 756.038 980.36 758.579 974.218 758.579 967.03L758.579 941.19 723.002 941.19C705.918 941.19 691.347 935.158 679.287 923.101 667.227 911.045 661.197 896.466 661.197 879.382L661.197 830.691C661.197 827.108 662.454 824.06 664.967 821.545 667.482 819.032 670.587 817.775 674.286 817.775Z" fill="url(#fill5)" fill-rule="evenodd" transform="matrix(1.00027 0 0 1 -574.009 -505.611)"/><path d="M886.462 860.849C890.467 861.385 893.659 863.203 896.03 866.312 898.401 869.412 899.34 872.889 898.82 876.726L886.177 971.579C885.524 976.497 886.646 980.896 889.554 984.759 892.453 988.629 896.357 990.892 901.25 991.537L939.749 996.673 954.747 884.183C955.266 880.304 957.068 877.187 960.151 874.833 963.234 872.47 966.778 871.557 970.775 872.093 974.78 872.629 977.972 874.447 980.343 877.547 982.714 880.656 983.644 884.124 983.133 887.97L966.276 1014.44C965.739 1018.42 963.921 1021.59 960.813 1023.97 957.713 1026.34 954.169 1027.26 950.189 1026.73L897.496 1019.71C884.904 1018.03 874.724 1012.11 866.94 1001.93 859.165 991.763 856.115 980.377 857.791 967.792L870.434 872.939C870.953 869.06 872.755 865.943 875.838 863.589 878.921 861.226 882.466 860.321 886.462 860.849Z" fill="url(#fill6)" fill-rule="evenodd" transform="matrix(1.00027 0 0 1 -574.009 -505.611)"/><path d="M1060.73 828.187 1072.77 905.154 1111.14 899.156C1121.55 897.53 1129.97 892.327 1136.36 883.563 1142.76 874.791 1145.14 865.164 1143.5 854.666 1141.86 844.176 1136.65 835.734 1127.89 829.337 1119.12 822.941 1109.53 820.558 1099.11 822.188ZM1042.19 802.318 1094.72 794.107C1113.11 791.231 1129.84 795.288 1144.91 806.277 1159.96 817.267 1168.93 831.924 1171.79 850.25 1174.66 868.574 1170.59 885.264 1159.6 900.328 1148.61 915.393 1133.92 924.358 1115.53 927.232L1077.16 933.231 1088.08 1003.12C1088.7 1007.09 1087.86 1010.66 1085.55 1013.82 1083.25 1016.97 1080.1 1018.87 1076.12 1019.49 1072.13 1020.11 1068.57 1019.28 1065.43 1016.99 1062.29 1014.69 1060.41 1011.55 1059.79 1007.55L1030.22 818.463C1029.62 814.598 1030.46 811.097 1032.75 807.961 1035.04 804.826 1038.19 802.945 1042.19 802.318Z" fill="url(#fill7)" fill-rule="evenodd" transform="matrix(1.00027 0 0 1 -574.009 -505.611)"/><path d="M1234.71 807.105C1238.75 807.105 1242.15 808.488 1244.92 811.251 1247.68 814.015 1249.07 817.334 1249.07 821.208L1249.07 874.372C1249.07 885.096 1252.89 894.288 1260.55 901.945 1268.2 909.603 1277.32 913.432 1287.9 913.432L1326.75 913.432 1326.75 821.208C1326.75 817.295 1328.12 813.967 1330.87 811.222 1333.61 808.477 1337 807.105 1341.04 807.105 1345.08 807.105 1348.48 808.488 1351.24 811.251 1354.01 814.015 1355.39 817.334 1355.39 821.208L1355.39 1012.59C1355.39 1016.61 1354.01 1019.99 1351.23 1022.76 1348.47 1025.53 1345.07 1026.91 1341.04 1026.91 1337.01 1026.91 1333.61 1025.54 1330.87 1022.79 1328.12 1020.04 1326.75 1016.64 1326.75 1012.59L1326.75 941.852 1287.9 941.852C1269.25 941.852 1253.34 935.267 1240.18 922.104 1227.01 908.933 1220.42 893.022 1220.42 874.372L1220.42 821.208C1220.42 817.295 1221.79 813.967 1224.54 811.222 1227.28 808.477 1230.68 807.105 1234.71 807.105Z" fill="url(#fill8)" fill-rule="evenodd" transform="matrix(1.00027 0 0 1 -574.009 -505.611)"/><path d="M1446.18 830.318 1451.92 908.012 1490.65 905.146C1501.17 904.375 1509.97 899.876 1517.06 891.657 1524.15 883.437 1527.3 874.037 1526.52 863.446 1525.74 852.856 1521.24 844.017 1513.02 836.925 1504.8 829.838 1495.44 826.681 1484.91 827.458ZM1429.81 803.027 1482.83 799.114C1501.39 797.743 1517.74 803.146 1531.86 815.324 1545.98 827.503 1553.72 842.835 1555.08 861.335 1556.44 879.826 1551.04 896.139 1538.86 910.257 1526.68 924.375 1511.31 932.125 1492.75 933.491L1454 936.356 1459.22 1006.9C1459.51 1010.9 1458.38 1014.38 1455.82 1017.35 1453.27 1020.31 1449.98 1021.94 1445.96 1022.24 1441.94 1022.54 1438.45 1021.41 1435.51 1018.88 1432.57 1016.34 1430.96 1013.05 1430.65 1009.01L1416.56 818.146C1416.28 814.244 1417.4 810.823 1419.94 807.884 1422.47 804.945 1425.76 803.326 1429.81 803.027Z" fill="url(#fill9)" fill-rule="evenodd" transform="matrix(1.00027 0 0 1 -574.009 -505.611)"/></g></g></g></g></svg>