<svg width="1982" height="1293" xmlns="http://www.w3.org/2000/svg" xmlns:xlink="http://www.w3.org/1999/xlink" overflow="hidden"><defs><clipPath id="clip0"><rect x="1972" y="928" width="1982" height="1293"/></clipPath></defs><g clip-path="url(#clip0)" transform="translate(-1972 -928)"><path d="M2739 2100.5C2739 2088.63 2748.63 2079 2760.5 2079L2876.5 2079C2888.37 2079 2898 2088.63 2898 2100.5L2898 2186.5C2898 2198.37 2888.37 2208 2876.5 2208L2760.5 2208C2748.63 2208 2739 2198.37 2739 2186.5Z" fill="#CCD0D6" fill-rule="evenodd"/><path d="M3003 1951.5C3003 1936.86 3014.86 1925 3029.5 1925L3135.5 1925C3150.14 1925 3162 1936.86 3162 1951.5L3162 2181.5C3162 2196.14 3150.14 2208 3135.5 2208L3029.5 2208C3014.86 2208 3003 2196.14 3003 2181.5Z" fill="#CCD0D6" fill-rule="evenodd"/><path d="M3267 1717.5C3267 1702.86 3278.86 1691 3293.5 1691L3399.5 1691C3414.14 1691 3426 1702.86 3426 1717.5L3426 2181.5C3426 2196.14 3414.14 2208 3399.5 2208L3293.5 2208C3278.86 2208 3267 2196.14 3267 2181.5Z" fill="#CCD0D6" fill-rule="evenodd"/><path d="M3531 1441.5C3531 1426.86 3542.86 1415 3557.5 1415L3663.5 1415C3678.14 1415 3690 1426.86 3690 1441.5L3690 2181.5C3690 2196.14 3678.14 2208 3663.5 2208L3557.5 2208C3542.86 2208 3531 2196.14 3531 2181.5Z" fill="#CCD0D6" fill-rule="evenodd"/><path d="M3794 1159.67C3794 1144.94 3805.94 1133 3820.67 1133L3927.33 1133C3942.06 1133 3954 1144.94 3954 1159.67L3954 2181.33C3954 2196.06 3942.06 2208 3927.33 2208L3820.67 2208C3805.94 2208 3794 2196.06 3794 2181.33Z" fill="#CCD0D6" fill-rule="evenodd"/><path d="M2553 2085 2553 2125.43" stroke="#425884" stroke-width="27.5" stroke-linecap="round" stroke-linejoin="round" stroke-miterlimit="10" fill="none" fill-rule="evenodd"/><path d="M0 0 24.8352 76.5218" stroke="#425884" stroke-width="27.5" stroke-linecap="round" stroke-linejoin="round" stroke-miterlimit="10" fill="none" fill-rule="evenodd" transform="matrix(-1 0 0 1 2552.84 2125)"/><path d="M2553 2124 2587.53 2195.35" stroke="#425884" stroke-width="27.5" stroke-linecap="round" stroke-linejoin="round" stroke-miterlimit="10" fill="none" fill-rule="evenodd"/><path d="M0 0 64.1941 39.5199" stroke="#425884" stroke-width="27.5" stroke-linecap="round" stroke-linejoin="round" stroke-miterlimit="10" fill="none" fill-rule="evenodd" transform="matrix(-1 0 0 1 2553.19 2085)"/><path d="M2553 2085 2622.07 2089.56" stroke="#425884" stroke-width="27.5" stroke-linecap="round" stroke-linejoin="round" stroke-miterlimit="10" fill="none" fill-rule="evenodd"/><path d="M2521 2038C2521 2024.19 2532.19 2013 2546 2013 2559.81 2013 2571 2024.19 2571 2038 2571 2051.81 2559.81 2063 2546 2063 2532.19 2063 2521 2051.81 2521 2038Z" fill="#425884" fill-rule="evenodd"/><path d="M2256 2096 2256 2136.43" stroke="#425884" stroke-width="27.5" stroke-linecap="round" stroke-linejoin="round" stroke-miterlimit="10" fill="none" fill-rule="evenodd"/><path d="M0 0 22.6388 70.1189" stroke="#425884" stroke-width="27.5" stroke-linecap="round" stroke-linejoin="round" stroke-miterlimit="10" fill="none" fill-rule="evenodd" transform="matrix(-1 0 0 1 2255.64 2136)"/><path d="M2256 2135 2292.19 2204.49" stroke="#425884" stroke-width="27.5" stroke-linecap="round" stroke-linejoin="round" stroke-miterlimit="10" fill="none" fill-rule="evenodd"/><path d="M2256.19 2095.39 2192 2053" stroke="#425884" stroke-width="27.5" stroke-linecap="round" stroke-linejoin="round" stroke-miterlimit="10" fill="none" fill-rule="evenodd"/><path d="M0 0 43.5976 13.7767" stroke="#425884" stroke-width="27.5" stroke-linecap="round" stroke-linejoin="round" stroke-miterlimit="10" fill="none" fill-rule="evenodd" transform="matrix(1 0 0 -1 2256 2095.78)"/><path d="M2233 2041C2233 2027.19 2244.42 2016 2258.5 2016 2272.58 2016 2284 2027.19 2284 2041 2284 2054.81 2272.58 2066 2258.5 2066 2244.42 2066 2233 2054.81 2233 2041Z" fill="#425884" fill-rule="evenodd"/><path d="M3872 998 3872 1038.43" stroke="#425884" stroke-width="27.5" stroke-linecap="round" stroke-linejoin="round" stroke-miterlimit="10" fill="none" fill-rule="evenodd"/><path d="M0 0 32.9278 80.6479" stroke="#425884" stroke-width="27.5" stroke-linecap="round" stroke-linejoin="round" stroke-miterlimit="10" fill="none" fill-rule="evenodd" transform="matrix(-1 0 0 1 3871.93 1039)"/><path d="M3872 1038 3896.84 1124.4" stroke="#425884" stroke-width="27.5" stroke-linecap="round" stroke-linejoin="round" stroke-miterlimit="10" fill="none" fill-rule="evenodd"/><path d="M0 0 75.3612 46.0257" stroke="#425884" stroke-width="27.5" stroke-linecap="round" stroke-linejoin="round" stroke-miterlimit="10" fill="none" fill-rule="evenodd" transform="matrix(-1 0 0 1 3871.36 998)"/><path d="M3872 998 3921.78 1029.47" stroke="#425884" stroke-width="27.5" stroke-linecap="round" stroke-linejoin="round" stroke-miterlimit="10" fill="none" fill-rule="evenodd"/><path d="M3846 953.5C3846 939.417 3857.19 928 3871 928 3884.81 928 3896 939.417 3896 953.5 3896 967.583 3884.81 979 3871 979 3857.19 979 3846 967.583 3846 953.5Z" fill="#425884" fill-rule="evenodd"/><path d="M2799 1960 2799 2000.43" stroke="#425884" stroke-width="27.5" stroke-linecap="round" stroke-linejoin="round" stroke-miterlimit="10" fill="none" fill-rule="evenodd"/><path d="M0 0 73.3904 38.1196" stroke="#425884" stroke-width="27.5" stroke-linecap="round" stroke-linejoin="round" stroke-miterlimit="10" fill="none" fill-rule="evenodd" transform="matrix(-1 0 0 1 2799.39 2000)"/><path d="M2799 1999 2817.15 2068.85" stroke="#425884" stroke-width="27.5" stroke-linecap="round" stroke-linejoin="round" stroke-miterlimit="10" fill="none" fill-rule="evenodd"/><path d="M2799.39 1959.17 2726 1938" stroke="#425884" stroke-width="27.5" stroke-linecap="round" stroke-linejoin="round" stroke-miterlimit="10" fill="none" fill-rule="evenodd"/><path d="M0 0 69.8348 12.248" stroke="#425884" stroke-width="27.5" stroke-linecap="round" stroke-linejoin="round" stroke-miterlimit="10" fill="none" fill-rule="evenodd" transform="matrix(1 0 0 -1 2799 1959.25)"/><path d="M2768 1910C2768 1896.19 2779.19 1885 2793 1885 2806.81 1885 2818 1896.19 2818 1910 2818 1923.81 2806.81 1935 2793 1935 2779.19 1935 2768 1923.81 2768 1910Z" fill="#425884" fill-rule="evenodd"/><path d="M3464.58 1491.02 3461.1 1531.3" stroke="#425884" stroke-width="27.5" stroke-linecap="round" stroke-linejoin="round" stroke-miterlimit="10" fill="none" fill-rule="evenodd"/><path d="M3461 1531 3462.74 1623.38" stroke="#425884" stroke-width="27.5" stroke-linecap="round" stroke-linejoin="round" stroke-miterlimit="10" fill="none" fill-rule="evenodd"/><path d="M3461 1530 3499.53 1603.33" stroke="#425884" stroke-width="27.5" stroke-linecap="round" stroke-linejoin="round" stroke-miterlimit="10" fill="none" fill-rule="evenodd"/><path d="M0 0 66.5828 0.124869" stroke="#425884" stroke-width="27.5" stroke-linecap="round" stroke-linejoin="round" stroke-miterlimit="10" fill="none" fill-rule="evenodd" transform="matrix(1 0 0 -1 3465 1491.12)"/><path d="M0 0 67.2252 48.5476" stroke="#425884" stroke-width="27.5" stroke-linecap="round" stroke-linejoin="round" stroke-miterlimit="10" fill="none" fill-rule="evenodd" transform="matrix(1 0 0 -1 3465 1490.55)"/><path d="M3444.64 1433.17C3445.83 1419.33 3458.02 1409.08 3471.85 1410.27 3485.69 1411.47 3495.94 1423.65 3494.75 1437.49 3493.56 1451.33 3481.37 1461.58 3467.53 1460.38 3453.7 1459.19 3443.45 1447.01 3444.64 1433.17Z" fill="#425884" fill-rule="evenodd"/><path d="M3623.73 1286.95 3619.91 1327.19" stroke="#425884" stroke-width="27.5" stroke-linecap="round" stroke-linejoin="round" stroke-miterlimit="10" fill="none" fill-rule="evenodd"/><path d="M0 0 34.4475 78.3194" stroke="#425884" stroke-width="27.5" stroke-linecap="round" stroke-linejoin="round" stroke-miterlimit="10" fill="none" fill-rule="evenodd" transform="matrix(-1 0 0 1 3619.45 1327)"/><path d="M3620 1326 3642.96 1410.91" stroke="#425884" stroke-width="27.5" stroke-linecap="round" stroke-linejoin="round" stroke-miterlimit="10" fill="none" fill-rule="evenodd"/><path d="M3623.41 1287.08 3554 1244" stroke="#425884" stroke-width="27.5" stroke-linecap="round" stroke-linejoin="round" stroke-miterlimit="10" fill="none" fill-rule="evenodd"/><path d="M0 0 72.2752 43.0177" stroke="#425884" stroke-width="27.5" stroke-linecap="round" stroke-linejoin="round" stroke-miterlimit="10" fill="none" fill-rule="evenodd" transform="matrix(1 0 0 -1 3624 1287.02)"/><path d="M3600.08 1228.97C3601.4 1215.14 3613.67 1204.99 3627.5 1206.31 3641.33 1207.62 3651.47 1219.89 3650.16 1233.72 3648.84 1247.55 3636.57 1257.69 3622.74 1256.38 3608.92 1255.07 3598.77 1242.79 3600.08 1228.97Z" fill="#425884" fill-rule="evenodd"/><path d="M2025 2077 2025 2117.43" stroke="#425884" stroke-width="27.5" stroke-linecap="round" stroke-linejoin="round" stroke-miterlimit="10" fill="none" fill-rule="evenodd"/><path d="M0 0 29.1991 84.002" stroke="#425884" stroke-width="27.5" stroke-linecap="round" stroke-linejoin="round" stroke-miterlimit="10" fill="none" fill-rule="evenodd" transform="matrix(-1 0 0 1 2025.2 2118)"/><path d="M2025 2117 2085.49 2169.49" stroke="#425884" stroke-width="27.5" stroke-linecap="round" stroke-linejoin="round" stroke-miterlimit="10" fill="none" fill-rule="evenodd"/><path d="M2025.36 2076.84 1986 2031" stroke="#425884" stroke-width="27.5" stroke-linecap="round" stroke-linejoin="round" stroke-miterlimit="10" fill="none" fill-rule="evenodd"/><path d="M0 0 80.9095 17.2698" stroke="#425884" stroke-width="27.5" stroke-linecap="round" stroke-linejoin="round" stroke-miterlimit="10" fill="none" fill-rule="evenodd" transform="matrix(1 0 0 -1 2025 2077.27)"/><path d="M2016 2021C2016 2007.19 2027.19 1996 2041 1996 2054.81 1996 2066 2007.19 2066 2021 2066 2034.81 2054.81 2046 2041 2046 2027.19 2046 2016 2034.81 2016 2021Z" fill="#425884" fill-rule="evenodd"/><path d="M3151 1987 3151 2027.43" stroke="#425884" stroke-width="27.5" stroke-linecap="round" stroke-linejoin="round" stroke-miterlimit="10" fill="none" fill-rule="evenodd"/><path d="M0 0 22.6388 70.1189" stroke="#425884" stroke-width="27.5" stroke-linecap="round" stroke-linejoin="round" stroke-miterlimit="10" fill="none" fill-rule="evenodd" transform="matrix(-1 0 0 1 3150.64 2027)"/><path d="M3151 2027 3187.19 2096.49" stroke="#425884" stroke-width="27.5" stroke-linecap="round" stroke-linejoin="round" stroke-miterlimit="10" fill="none" fill-rule="evenodd"/><path d="M3151.19 1987.39 3087 1945" stroke="#425884" stroke-width="27.5" stroke-linecap="round" stroke-linejoin="round" stroke-miterlimit="10" fill="none" fill-rule="evenodd"/><path d="M0 0 26.0557 13.7157" stroke="#425884" stroke-width="27.5" stroke-linecap="round" stroke-linejoin="round" stroke-miterlimit="10" fill="none" fill-rule="evenodd" transform="matrix(1 0 0 -1 3151 1986.72)"/><path d="M3128 1932C3128 1918.19 3139.42 1907 3153.5 1907 3167.58 1907 3179 1918.19 3179 1932 3179 1945.81 3167.58 1957 3153.5 1957 3139.42 1957 3128 1945.81 3128 1932Z" fill="#425884" fill-rule="evenodd"/><path d="M3335 1581 3335 1621.43" stroke="#425884" stroke-width="27.5" stroke-linecap="round" stroke-linejoin="round" stroke-miterlimit="10" fill="none" fill-rule="evenodd"/><path d="M0 0 15.5624 69.8164" stroke="#425884" stroke-width="27.5" stroke-linecap="round" stroke-linejoin="round" stroke-miterlimit="10" fill="none" fill-rule="evenodd" transform="matrix(-1 0 0 1 3334.56 1621)"/><path d="M3335 1621 3367.02 1688.57" stroke="#425884" stroke-width="27.5" stroke-linecap="round" stroke-linejoin="round" stroke-miterlimit="10" fill="none" fill-rule="evenodd"/><path d="M3334.39 1581.17 3261 1560" stroke="#425884" stroke-width="27.5" stroke-linecap="round" stroke-linejoin="round" stroke-miterlimit="10" fill="none" fill-rule="evenodd"/><path d="M0 0 56.7597 5.19649" stroke="#425884" stroke-width="27.5" stroke-linecap="round" stroke-linejoin="round" stroke-miterlimit="10" fill="none" fill-rule="evenodd" transform="matrix(1 0 0 -1 3335 1581.2)"/><path d="M3303 1531.5C3303 1517.42 3314.42 1506 3328.5 1506 3342.58 1506 3354 1517.42 3354 1531.5 3354 1545.58 3342.58 1557 3328.5 1557 3314.42 1557 3303 1545.58 3303 1531.5Z" fill="#425884" fill-rule="evenodd"/><path d="M3016.75 2161.63 2964.5 2157.5" stroke="#7C7C7C" stroke-width="20.625" stroke-linecap="round" stroke-linejoin="round" stroke-miterlimit="10" fill="#7C7C7C" fill-rule="evenodd"/><path d="M0 0 4.12933 38.255" stroke="#7C7C7C" stroke-width="20.625" stroke-linecap="round" stroke-linejoin="round" stroke-miterlimit="10" fill="#7C7C7C" fill-rule="evenodd" transform="matrix(1 0 0 -1 2960.5 2196.75)"/><path d="M3018.84 2197.67 3016.5 2160.5" stroke="#7C7C7C" stroke-width="20.625" stroke-linecap="round" stroke-linejoin="round" stroke-miterlimit="10" fill="#7C7C7C" fill-rule="evenodd"/><path d="M0 0 14.2368 31.7719" stroke="#7C7C7C" stroke-width="20.625" stroke-linecap="round" stroke-linejoin="round" stroke-miterlimit="10" fill="#7C7C7C" fill-rule="evenodd" transform="matrix(1 0 0 -1 3019.5 2161.27)"/><path d="M3015.75 2173.63 2963.5 2169.5" stroke="#7C7C7C" stroke-width="20.625" stroke-linecap="round" stroke-linejoin="round" stroke-miterlimit="10" fill="#7C7C7C" fill-rule="evenodd"/><path d="M2935 2132C2935 2119.3 2945.3 2109 2958 2109 2970.7 2109 2981 2119.3 2981 2132 2981 2144.7 2970.7 2155 2958 2155 2945.3 2155 2935 2144.7 2935 2132Z" fill="#7C7C7C" fill-rule="evenodd"/><path d="M2954.24 2120.43 2979.29 2095.13 2980.47 2130.72Z" fill="#7C7C7C" fill-rule="evenodd"/><path d="M2940.61 2125.31 2951.85 2091.52 2968.69 2122.89Z" fill="#7C7C7C" fill-rule="evenodd"/></g></svg>