<svg width="3822" height="966" xmlns="http://www.w3.org/2000/svg" xmlns:xlink="http://www.w3.org/1999/xlink" overflow="hidden"><defs><clipPath id="clip0"><rect x="288" y="528" width="3822" height="966"/></clipPath></defs><g clip-path="url(#clip0)" transform="translate(-288 -528)"><path d="M367.741 528 4030.26 528C4074.3 528 4110 563.699 4110 607.736L4110 1213.43 3963.8 1213.43 3314.84 1217.1C3111.35 1226.26 2909.7 1239.1 2742.87 1268.43 2576.05 1297.76 2464.84 1364.36 2313.9 1393.08 2162.97 1421.8 1986.98 1433.41 1837.26 1440.74 1687.55 1448.07 1598.33 1440.74 1415.62 1437.07 1190.75 1430.96 928.291 1413.85 740.997 1418.74 553.702 1423.63 491.068 1437.68 407.35 1455.4 323.633 1473.12 329.381 1480.67 294.478 1491.85L288 1494 288 607.736C288 563.699 323.701 528 367.741 528Z" fill="#EDEDED" fill-rule="evenodd"/></g></svg>