<svg width="1044" height="219" xmlns="http://www.w3.org/2000/svg" xmlns:xlink="http://www.w3.org/1999/xlink" overflow="hidden"><defs><clipPath id="clip0"><rect x="2042" y="1648" width="1044" height="219"/></clipPath></defs><g clip-path="url(#clip0)" transform="translate(-2042 -1648)"><path d="M2142 1727 2142 1767.43" stroke="#425884" stroke-width="27.5" stroke-linecap="round" stroke-linejoin="round" stroke-miterlimit="10" fill="none" fill-rule="evenodd"/><path d="M0 0 86.2107 33.1371" stroke="#425884" stroke-width="27.5" stroke-linecap="round" stroke-linejoin="round" stroke-miterlimit="10" fill="none" fill-rule="evenodd" transform="matrix(-1 0 0 1 2142.21 1767)"/><path d="M2142 1766 2168.43 1849.92" stroke="#425884" stroke-width="27.5" stroke-linecap="round" stroke-linejoin="round" stroke-miterlimit="10" fill="none" fill-rule="evenodd"/><path d="M0 0 85.0493 8.00459" stroke="#425884" stroke-width="27.5" stroke-linecap="round" stroke-linejoin="round" stroke-miterlimit="10" fill="none" fill-rule="evenodd" transform="matrix(-1 0 0 1 2142.05 1727)"/><path d="M0 0 68.9734 6.72992" stroke="#425884" stroke-width="27.5" stroke-linecap="round" stroke-linejoin="round" stroke-miterlimit="10" fill="none" fill-rule="evenodd" transform="matrix(1 0 0 -1 2142 1726.73)"/><path d="M2110 1680C2110 1666.19 2121.42 1655 2135.5 1655 2149.58 1655 2161 1666.19 2161 1680 2161 1693.81 2149.58 1705 2135.5 1705 2121.42 1705 2110 1693.81 2110 1680Z" fill="#425884" fill-rule="evenodd"/><path d="M2342 1727 2342 1767.43" stroke="#425884" stroke-width="27.5" stroke-linecap="round" stroke-linejoin="round" stroke-miterlimit="10" fill="none" fill-rule="evenodd"/><path d="M0 0 31.9087 78.0563" stroke="#425884" stroke-width="27.5" stroke-linecap="round" stroke-linejoin="round" stroke-miterlimit="10" fill="none" fill-rule="evenodd" transform="matrix(-1 0 0 1 2341.91 1767)"/><path d="M2342 1766 2373.45 1846.64" stroke="#425884" stroke-width="27.5" stroke-linecap="round" stroke-linejoin="round" stroke-miterlimit="10" fill="none" fill-rule="evenodd"/><path d="M2342.2 1726.34 2268 1691" stroke="#425884" stroke-width="27.5" stroke-linecap="round" stroke-linejoin="round" stroke-miterlimit="10" fill="none" fill-rule="evenodd"/><path d="M0 0 74.198 40.0883" stroke="#425884" stroke-width="27.5" stroke-linecap="round" stroke-linejoin="round" stroke-miterlimit="10" fill="none" fill-rule="evenodd" transform="matrix(1 0 0 -1 2342 1726.09)"/><path d="M2318 1673C2318 1659.19 2329.19 1648 2343 1648 2356.81 1648 2368 1659.19 2368 1673 2368 1686.81 2356.81 1698 2343 1698 2329.19 1698 2318 1686.81 2318 1673Z" fill="#425884" fill-rule="evenodd"/><path d="M2538 1727 2538 1767.43" stroke="#425884" stroke-width="27.5" stroke-linecap="round" stroke-linejoin="round" stroke-miterlimit="10" fill="none" fill-rule="evenodd"/><path d="M0 0 34.5461 79.6804" stroke="#425884" stroke-width="27.5" stroke-linecap="round" stroke-linejoin="round" stroke-miterlimit="10" fill="none" fill-rule="evenodd" transform="matrix(-1 0 0 1 2537.55 1767)"/><path d="M2538 1766 2569.43 1844.34" stroke="#425884" stroke-width="27.5" stroke-linecap="round" stroke-linejoin="round" stroke-miterlimit="10" fill="none" fill-rule="evenodd"/><path d="M0 0 64.0613 27.5061" stroke="#425884" stroke-width="27.5" stroke-linecap="round" stroke-linejoin="round" stroke-miterlimit="10" fill="none" fill-rule="evenodd" transform="matrix(-1 0 0 1 2538.06 1727)"/><path d="M2538 1726 2607.78 1746.03" stroke="#425884" stroke-width="27.5" stroke-linecap="round" stroke-linejoin="round" stroke-miterlimit="10" fill="none" fill-rule="evenodd"/><path d="M2516 1680C2516 1666.19 2527.42 1655 2541.5 1655 2555.58 1655 2567 1666.19 2567 1680 2567 1693.81 2555.58 1705 2541.5 1705 2527.42 1705 2516 1693.81 2516 1680Z" fill="#425884" fill-rule="evenodd"/><path d="M2771 1727 2771 1767.43" stroke="#425884" stroke-width="27.5" stroke-linecap="round" stroke-linejoin="round" stroke-miterlimit="10" fill="none" fill-rule="evenodd"/><path d="M0 0 38.2452 79.3386" stroke="#425884" stroke-width="27.5" stroke-linecap="round" stroke-linejoin="round" stroke-miterlimit="10" fill="none" fill-rule="evenodd" transform="matrix(-1 0 0 1 2771.25 1767)"/><path d="M2771 1766 2806.09 1843.91" stroke="#425884" stroke-width="27.5" stroke-linecap="round" stroke-linejoin="round" stroke-miterlimit="10" fill="none" fill-rule="evenodd"/><path d="M0 0 76.3143 27.5061" stroke="#425884" stroke-width="27.5" stroke-linecap="round" stroke-linejoin="round" stroke-miterlimit="10" fill="none" fill-rule="evenodd" transform="matrix(-1 0 0 1 2771.31 1727)"/><path d="M0 0 80.0524 30.7794" stroke="#425884" stroke-width="27.5" stroke-linecap="round" stroke-linejoin="round" stroke-miterlimit="10" fill="none" fill-rule="evenodd" transform="matrix(1 0 0 -1 2771 1726.78)"/><path d="M2739 1680C2739 1666.19 2750.19 1655 2764 1655 2777.81 1655 2789 1666.19 2789 1680 2789 1693.81 2777.81 1705 2764 1705 2750.19 1705 2739 1693.81 2739 1680Z" fill="#425884" fill-rule="evenodd"/><path d="M2999 1727 2999 1767.43" stroke="#425884" stroke-width="27.5" stroke-linecap="round" stroke-linejoin="round" stroke-miterlimit="10" fill="none" fill-rule="evenodd"/><path d="M0 0 35.6551 82.0832" stroke="#425884" stroke-width="27.5" stroke-linecap="round" stroke-linejoin="round" stroke-miterlimit="10" fill="none" fill-rule="evenodd" transform="matrix(-1 0 0 1 2998.66 1767)"/><path d="M2999 1766 3019.89 1852.5" stroke="#425884" stroke-width="27.5" stroke-linecap="round" stroke-linejoin="round" stroke-miterlimit="10" fill="none" fill-rule="evenodd"/><path d="M2999.01 1726.18 2935 1706" stroke="#425884" stroke-width="27.5" stroke-linecap="round" stroke-linejoin="round" stroke-miterlimit="10" fill="none" fill-rule="evenodd"/><path d="M0 0 72.2709 6.7292" stroke="#425884" stroke-width="27.5" stroke-linecap="round" stroke-linejoin="round" stroke-miterlimit="10" fill="none" fill-rule="evenodd" transform="matrix(1 0 0 -1 2999 1726.73)"/><path d="M2978 1678C2978 1664.19 2989.42 1653 3003.5 1653 3017.58 1653 3029 1664.19 3029 1678 3029 1691.81 3017.58 1703 3003.5 1703 2989.42 1703 2978 1691.81 2978 1678Z" fill="#425884" fill-rule="evenodd"/></g></svg>